<?xml version="1.0" encoding="UTF-8"?>
<svg xmlns="http://www.w3.org/2000/svg" xmlns:xlink="http://www.w3.org/1999/xlink" viewBox="0 0 24 24" width="24px" height="24px">
<g id="surface245971107">
<path style=" stroke:none;fill-rule:nonzero;fill:rgb(100%,100%,100%);fill-opacity:1;" d="M 0 12 C 0 5.371094 5.371094 0 12 0 C 18.628906 0 24 5.371094 24 12 C 24 18.628906 18.628906 24 12 24 C 5.371094 24 0 18.628906 0 12 Z M 12 23.519531 C 18.363281 23.519531 23.519531 18.363281 23.519531 12 C 23.519531 5.636719 18.363281 0.480469 12 0.480469 C 5.636719 0.480469 0.480469 5.636719 0.480469 12 C 0.480469 18.363281 5.636719 23.519531 12 23.519531 Z M 12 23.519531 "/>
<path style=" stroke:none;fill-rule:nonzero;fill:rgb(100%,100%,100%);fill-opacity:1;" d="M 19.839844 7.136719 C 19.261719 7.394531 18.644531 7.566406 17.992188 7.644531 C 18.65625 7.246094 19.167969 6.617188 19.40625 5.863281 C 18.785156 6.234375 18.097656 6.5 17.363281 6.644531 C 16.777344 6.019531 15.941406 5.628906 15.015625 5.628906 C 13.238281 5.628906 11.796875 7.070312 11.796875 8.847656 C 11.796875 9.097656 11.828125 9.34375 11.882812 9.578125 C 9.207031 9.445312 6.839844 8.164062 5.25 6.21875 C 4.972656 6.691406 4.816406 7.246094 4.816406 7.835938 C 4.816406 8.949219 5.382812 9.9375 6.246094 10.511719 C 5.71875 10.496094 5.222656 10.351562 4.789062 10.109375 C 4.789062 10.125 4.789062 10.136719 4.789062 10.148438 C 4.789062 11.710938 5.898438 13.007812 7.371094 13.304688 C 7.101562 13.378906 6.816406 13.417969 6.523438 13.417969 C 6.316406 13.417969 6.113281 13.398438 5.917969 13.359375 C 6.328125 14.636719 7.515625 15.570312 8.921875 15.59375 C 7.820312 16.457031 6.433594 16.972656 4.925781 16.972656 C 4.667969 16.972656 4.410156 16.957031 4.160156 16.925781 C 5.582031 17.839844 7.273438 18.371094 9.089844 18.371094 C 15.007812 18.371094 18.242188 13.46875 18.242188 9.21875 C 18.242188 9.078125 18.242188 8.941406 18.234375 8.800781 C 18.863281 8.347656 19.410156 7.78125 19.839844 7.136719 Z M 19.839844 7.136719 "/>
</g>
</svg>
