<?xml version="1.0" encoding="UTF-8"?>
<svg xmlns="http://www.w3.org/2000/svg" xmlns:xlink="http://www.w3.org/1999/xlink" viewBox="0 0 24 24" width="24px" height="24px">
<g id="surface246424293">
<path style=" stroke:none;fill-rule:nonzero;fill:rgb(100%,100%,100%);fill-opacity:1;" d="M 0 12 C 0 5.371094 5.371094 0 12 0 C 18.628906 0 24 5.371094 24 12 C 24 18.628906 18.628906 24 12 24 C 5.371094 24 0 18.628906 0 12 Z M 12 23.519531 C 18.363281 23.519531 23.519531 18.363281 23.519531 12 C 23.519531 5.636719 18.363281 0.480469 12 0.480469 C 5.636719 0.480469 0.480469 5.636719 0.480469 12 C 0.480469 18.363281 5.636719 23.519531 12 23.519531 Z M 12 23.519531 "/>
<path style=" stroke:none;fill-rule:nonzero;fill:rgb(100%,100%,100%);fill-opacity:1;" d="M 9.9375 19.679688 L 9.9375 12 L 7.378906 12 L 7.378906 9.441406 L 9.9375 9.441406 L 9.9375 8.066406 C 9.9375 5.460938 11.207031 4.320312 13.371094 4.320312 C 14.40625 4.320312 14.953125 4.398438 15.214844 4.433594 L 15.214844 6.878906 L 13.738281 6.878906 C 12.820312 6.878906 12.5 7.363281 12.5 8.347656 L 12.5 9.441406 L 15.191406 9.441406 L 14.824219 12 L 12.5 12 L 12.5 19.679688 Z M 9.9375 19.679688 "/>
</g>
</svg>
