<?xml version="1.0" encoding="UTF-8"?>
<svg xmlns="http://www.w3.org/2000/svg" xmlns:xlink="http://www.w3.org/1999/xlink" viewBox="0 0 24 24" width="24px" height="24px">
<g id="surface245967809">
<path style=" stroke:none;fill-rule:nonzero;fill:rgb(100%,100%,100%);fill-opacity:1;" d="M 0 12 C 0 5.371094 5.371094 0 12 0 C 18.628906 0 24 5.371094 24 12 C 24 18.628906 18.628906 24 12 24 C 5.371094 24 0 18.628906 0 12 Z M 12 23.519531 C 18.363281 23.519531 23.519531 18.363281 23.519531 12 C 23.519531 5.636719 18.363281 0.480469 12 0.480469 C 5.636719 0.480469 0.480469 5.636719 0.480469 12 C 0.480469 18.363281 5.636719 23.519531 12 23.519531 Z M 12 23.519531 "/>
<path style=" stroke:none;fill-rule:nonzero;fill:rgb(100%,100%,100%);fill-opacity:1;" d="M 8.800781 4.800781 C 6.59375 4.800781 4.800781 6.59375 4.800781 8.800781 L 4.800781 15.199219 C 4.800781 17.40625 6.59375 19.199219 8.800781 19.199219 L 15.199219 19.199219 C 17.40625 19.199219 19.199219 17.40625 19.199219 15.199219 L 19.199219 8.800781 C 19.199219 6.59375 17.40625 4.800781 15.199219 4.800781 Z M 8.800781 6.398438 L 15.199219 6.398438 C 16.523438 6.398438 17.601562 7.476562 17.601562 8.800781 L 17.601562 15.199219 C 17.601562 16.523438 16.523438 17.601562 15.199219 17.601562 L 8.800781 17.601562 C 7.476562 17.601562 6.398438 16.523438 6.398438 15.199219 L 6.398438 8.800781 C 6.398438 7.476562 7.476562 6.398438 8.800781 6.398438 Z M 16 7.199219 C 15.558594 7.199219 15.199219 7.558594 15.199219 8 C 15.199219 8.441406 15.558594 8.800781 16 8.800781 C 16.441406 8.800781 16.800781 8.441406 16.800781 8 C 16.800781 7.558594 16.441406 7.199219 16 7.199219 Z M 12 8 C 9.792969 8 8 9.792969 8 12 C 8 14.207031 9.792969 16 12 16 C 14.207031 16 16 14.207031 16 12 C 16 9.792969 14.207031 8 12 8 Z M 12 9.601562 C 13.324219 9.601562 14.398438 10.675781 14.398438 12 C 14.398438 13.324219 13.324219 14.398438 12 14.398438 C 10.675781 14.398438 9.601562 13.324219 9.601562 12 C 9.601562 10.675781 10.675781 9.601562 12 9.601562 Z M 12 9.601562 "/>
</g>
</svg>
